<svg width="280" height="531" viewBox="0 0 280 531" fill="none" xmlns="http://www.w3.org/2000/svg">
<g filter="url(#filter0_ii)">
<rect y="0.0307617" width="279.433" height="530.969" rx="7.21966" fill="#2F2F2C" fill-opacity="0.7"/>
</g>
<rect x="8.07617" y="13.9407" width="263.466" height="501.911" rx="7.21966" fill="#131311"/>
<g clip-path="url(#clip0)">
<path d="M62.5436 480.808C62.5436 479.482 61.8802 478.008 60.6648 477.223C60.3053 476.991 59.8824 477.289 59.8824 477.717C59.8824 477.985 60.06 478.215 60.294 478.347C61.176 478.846 61.213 479.762 61.213 480.808C61.213 481.856 61.1782 482.77 60.2945 483.269C60.0602 483.401 59.8824 483.631 59.8824 483.9C59.8824 484.328 60.3051 484.625 60.6648 484.394C61.8818 483.609 62.5436 482.134 62.5436 480.808ZM59.8824 480.808C59.8824 480.014 59.407 479.773 58.5517 479.487L-nan -nanL58.5517 479.487C58.9794 479.63 59.8824 480.41 59.8824 480.808C59.8824 481.204 58.9794 481.983 58.5517 482.129L-nan -nanL58.5517 482.129C59.407 481.838 59.8824 481.602 59.8824 480.808ZM61.6967 475.707C61.4045 475.585 61.0711 475.666 60.8462 475.889C60.4039 476.328 60.5801 477.082 61.1413 477.353C62.7005 478.107 63.8743 479.227 63.8743 480.808C63.8743 482.387 62.7005 483.509 61.1414 484.262C60.5802 484.534 60.4039 485.288 60.8463 485.727C61.0711 485.95 61.4044 486.031 61.6966 485.909C63.9618 484.963 65.2049 483.035 65.2049 480.808C65.2049 478.581 63.9596 476.653 61.6967 475.707Z" fill="white"/>
<path d="M49.2375 477.117H49.3696L49.4524 477.014L54.284 471.019V490.588L49.4524 484.593L49.3696 484.49H49.2375H45.5217V477.117H49.2375Z" stroke="white" stroke-width="0.552091"/>
</g>
<path d="M230.202 475.52H219.556L220.887 474.2C221.045 474.038 220.887 474.428 220.887 474.2C220.887 473.971 221.045 473.04 220.887 472.879C220.729 472.717 221.111 472.879 220.887 472.879C220.663 472.879 219.715 472.717 219.556 472.879L216.895 475.52C216.816 475.6 216.938 475.416 216.895 475.52C216.853 475.625 216.895 476.728 216.895 476.841C216.895 476.954 216.853 476.737 216.895 476.841C216.938 476.946 216.816 476.761 216.895 476.841L219.556 479.483C219.635 479.563 219.454 479.439 219.556 479.483C219.659 479.526 220.776 479.483 220.887 479.483C220.998 479.483 220.785 479.526 220.887 479.483C220.989 479.439 220.809 479.563 220.887 479.483C220.966 479.403 220.844 479.587 220.887 479.483C220.93 479.378 220.887 479.596 220.887 479.483C220.887 479.37 220.93 478.267 220.887 478.162C220.844 478.057 220.966 478.242 220.887 478.162L219.556 476.841H230.202C230.374 476.838 230.041 476.777 230.202 476.841C230.362 476.905 230.078 478.04 230.202 478.162C230.326 478.284 231.463 478.001 231.532 478.162C231.601 478.323 231.529 477.986 231.532 478.162V480.804C231.532 481.031 231.375 480.643 231.532 480.804C231.69 480.965 231.309 480.804 231.532 480.804C231.755 480.804 232.705 480.965 232.863 480.804C233.02 480.643 232.863 481.031 232.863 480.804V478.162C232.859 477.761 233.016 477.211 232.863 476.841C232.709 476.472 231.812 477.122 231.532 476.841C231.252 476.56 231.896 475.671 231.532 475.52C231.168 475.37 230.594 475.517 230.202 475.52ZM230.202 483.445C230.043 483.284 229.095 483.445 228.871 483.445C228.647 483.445 229.029 483.284 228.871 483.445C228.713 483.607 228.871 483.217 228.871 483.445C228.871 483.674 228.713 484.604 228.871 484.766L230.202 486.087H219.556C219.384 486.09 219.717 486.151 219.556 486.087C219.396 486.023 219.68 484.888 219.556 484.766C219.432 484.644 218.295 484.927 218.226 484.766C218.157 484.605 218.229 484.942 218.226 484.766V482.124C218.226 481.897 218.383 482.285 218.226 482.124C218.068 481.964 218.449 480.804 218.226 480.804C218.003 480.804 217.053 481.964 216.895 482.124C216.738 482.285 216.895 481.897 216.895 482.124V484.766C216.898 485.167 216.742 485.718 216.895 486.087C217.048 486.456 217.946 485.806 218.226 486.087C218.506 486.368 217.862 487.257 218.226 487.408C218.59 487.558 219.164 487.411 219.556 487.408H230.202L228.871 488.729C228.792 488.808 228.914 488.624 228.871 488.729C228.828 488.833 228.871 488.615 228.871 488.729C228.871 488.842 228.828 489.945 228.871 490.049C228.914 490.154 228.792 489.97 228.871 490.049C228.949 490.13 228.769 490.006 228.871 490.049C228.973 490.093 228.76 490.049 228.871 490.049C228.982 490.049 230.099 490.093 230.202 490.049C230.304 490.006 230.123 490.13 230.202 490.049L232.863 487.408C232.942 487.328 232.82 487.512 232.863 487.408C232.905 487.303 232.863 486.2 232.863 486.087C232.863 485.974 232.905 486.191 232.863 486.087C232.82 485.982 232.942 486.167 232.863 486.087L230.202 483.445Z" fill="white"/>
<g filter="url(#filter1_ii)">
<ellipse cx="139.72" cy="229.848" rx="81.1687" ry="80.5699" fill="#282825"/>
</g>
<path d="M171.655 200.791L130.406 184.941C129.009 184.435 127.888 184.75 126.414 184.941C124.94 185.133 123.64 185.416 122.422 186.262C121.204 187.109 120.446 188.915 119.761 190.225C119.075 191.534 118.428 192.711 118.43 194.187V221.924C115.633 220.27 112.371 219.302 109.116 219.283C98.9191 219.283 90.4868 227.651 90.4868 237.774C90.4868 247.897 98.9191 256.266 109.116 256.266C119.312 256.266 127.745 247.897 127.745 237.774V194.187L168.994 208.716V240.416C166.196 238.765 162.935 237.794 159.68 237.774C149.483 237.774 141.051 246.142 141.051 256.266C141.051 266.389 149.483 274.757 159.68 274.757C169.876 274.757 178.309 266.389 178.309 256.266V208.716C178.309 204.871 175.293 202.099 171.655 200.791ZM109.116 247.02C104.017 247.02 99.8012 242.836 99.8012 237.774C99.8012 232.713 104.017 228.528 109.116 228.528C114.214 228.528 118.43 232.713 118.43 237.774C118.43 242.836 114.214 247.02 109.116 247.02ZM159.68 265.511C154.581 265.511 150.365 261.327 150.365 256.266C150.365 251.204 154.581 247.02 159.68 247.02C164.778 247.02 168.994 251.204 168.994 256.266C168.994 261.327 164.778 265.511 159.68 265.511Z" fill="white"/>
<rect x="27.9463" y="442.5" width="223.547" height="2.64295" rx="0.424686" fill="white"/>
<ellipse cx="50.5628" cy="443.821" rx="6.65317" ry="6.60409" fill="white"/>
<ellipse cx="139.059" cy="480.148" rx="23.2861" ry="23.1143" fill="white"/>
<path d="M149.032 480.804L133.065 489.955L133.065 471.653L149.032 480.804Z" fill="#131311"/>
<path d="M186.288 480.803L174.312 487.666L174.312 473.94L186.288 480.803Z" fill="white"/>
<path d="M194.276 480.803L182.301 487.666L182.301 473.94L194.276 480.803Z" fill="white"/>
<path d="M91.8145 480.803L103.79 487.666L103.79 473.94L91.8145 480.803Z" fill="white"/>
<path d="M83.833 480.803L95.8087 487.666L95.8087 473.94L83.833 480.803Z" fill="white"/>
<defs>
<filter id="filter0_ii" x="-1.69874" y="0.0307617" width="282.831" height="532.668" filterUnits="userSpaceOnUse" color-interpolation-filters="sRGB">
<feFlood flood-opacity="0" result="BackgroundImageFix"/>
<feBlend mode="normal" in="SourceGraphic" in2="BackgroundImageFix" result="shape"/>
<feColorMatrix in="SourceAlpha" type="matrix" values="0 0 0 0 0 0 0 0 0 0 0 0 0 0 0 0 0 0 127 0" result="hardAlpha"/>
<feOffset dx="1.69874" dy="1.69874"/>
<feGaussianBlur stdDeviation="3.18514"/>
<feComposite in2="hardAlpha" operator="arithmetic" k2="-1" k3="1"/>
<feColorMatrix type="matrix" values="0 0 0 0 1 0 0 0 0 1 0 0 0 0 1 0 0 0 0.15 0"/>
<feBlend mode="normal" in2="shape" result="effect1_innerShadow"/>
<feColorMatrix in="SourceAlpha" type="matrix" values="0 0 0 0 0 0 0 0 0 0 0 0 0 0 0 0 0 0 127 0" result="hardAlpha"/>
<feOffset dx="-1.69874" dy="1.69874"/>
<feGaussianBlur stdDeviation="3.18514"/>
<feComposite in2="hardAlpha" operator="arithmetic" k2="-1" k3="1"/>
<feColorMatrix type="matrix" values="0 0 0 0 0 0 0 0 0 0 0 0 0 0 0 0 0 0 0.35 0"/>
<feBlend mode="normal" in2="effect1_innerShadow" result="effect2_innerShadow"/>
</filter>
<filter id="filter1_ii" x="56.853" y="149.278" width="165.735" height="162.839" filterUnits="userSpaceOnUse" color-interpolation-filters="sRGB">
<feFlood flood-opacity="0" result="BackgroundImageFix"/>
<feBlend mode="normal" in="SourceGraphic" in2="BackgroundImageFix" result="shape"/>
<feColorMatrix in="SourceAlpha" type="matrix" values="0 0 0 0 0 0 0 0 0 0 0 0 0 0 0 0 0 0 127 0" result="hardAlpha"/>
<feOffset dx="-1.69874" dy="1.69874"/>
<feGaussianBlur stdDeviation="3.18514"/>
<feComposite in2="hardAlpha" operator="arithmetic" k2="-1" k3="1"/>
<feColorMatrix type="matrix" values="0 0 0 0 0 0 0 0 0 0 0 0 0 0 0 0 0 0 0.35 0"/>
<feBlend mode="normal" in2="shape" result="effect1_innerShadow"/>
<feColorMatrix in="SourceAlpha" type="matrix" values="0 0 0 0 0 0 0 0 0 0 0 0 0 0 0 0 0 0 127 0" result="hardAlpha"/>
<feOffset dx="1.69874" dy="1.69874"/>
<feGaussianBlur stdDeviation="3.18514"/>
<feComposite in2="hardAlpha" operator="arithmetic" k2="-1" k3="1"/>
<feColorMatrix type="matrix" values="0 0 0 0 1 0 0 0 0 1 0 0 0 0 1 0 0 0 0.15 0"/>
<feBlend mode="normal" in2="effect1_innerShadow" result="effect2_innerShadow"/>
</filter>
<clipPath id="clip0">
<rect width="21.2901" height="21.1331" fill="white" transform="translate(45.2456 470.237)"/>
</clipPath>
</defs>
</svg>
