<svg width="554" height="57" viewBox="0 0 554 57" fill="none" xmlns="http://www.w3.org/2000/svg">
<path d="M553.427 8.83145C553.427 7.98871 552.783 7.30554 551.988 7.30554C551.193 7.30554 550.549 7.98871 550.549 8.83145V48.505C550.549 49.3477 551.193 50.0309 551.988 50.0309C552.783 50.0309 553.427 49.3477 553.427 48.505V8.83145Z" fill="white"/>
<path d="M531.844 8.83145C531.844 7.98871 531.199 7.30554 530.405 7.30554C529.61 7.30554 528.966 7.98871 528.966 8.83145V48.505C528.966 49.3477 529.61 50.0309 530.405 50.0309C531.199 50.0309 531.844 49.3477 531.844 48.505V8.83145Z" fill="white"/>
<path d="M510.26 8.83145C510.26 7.98871 509.616 7.30554 508.821 7.30554C508.027 7.30554 507.383 7.98871 507.383 8.83145V48.505C507.383 49.3477 508.027 50.0309 508.821 50.0309C509.616 50.0309 510.26 49.3477 510.26 48.505V8.83145Z" fill="white"/>
<path d="M445.51 8.83145C445.51 7.98871 444.866 7.30554 444.071 7.30554C443.277 7.30554 442.632 7.98871 442.632 8.83145V48.505C442.632 49.3477 443.277 50.0309 444.071 50.0309C444.866 50.0309 445.51 49.3477 445.51 48.505V8.83145Z" fill="white"/>
<path d="M521.052 20.2757C521.052 19.433 520.408 18.7498 519.613 18.7498C518.818 18.7498 518.174 19.433 518.174 20.2757V37.0607C518.174 37.9034 518.818 38.5866 519.613 38.5866C520.408 38.5866 521.052 37.9034 521.052 37.0607V20.2757Z" fill="white"/>
<path d="M499.469 16.461C499.469 15.6182 498.824 14.9351 498.03 14.9351C497.235 14.9351 496.591 15.6182 496.591 16.461V40.8755C496.591 41.7182 497.235 42.4014 498.03 42.4014C498.824 42.4014 499.469 41.7182 499.469 40.8755V16.461Z" fill="white"/>
<path d="M456.302 13.4092C456.302 12.5664 455.658 11.8833 454.863 11.8833C454.068 11.8833 453.424 12.5664 453.424 13.4092V43.9273C453.424 44.77 454.068 45.4532 454.863 45.4532C455.658 45.4532 456.302 44.77 456.302 43.9273V13.4092Z" fill="white"/>
<path d="M488.677 23.3276C488.677 22.4848 488.033 21.8016 487.238 21.8016C486.443 21.8016 485.799 22.4848 485.799 23.3276V34.7718C485.799 35.6146 486.443 36.2978 487.238 36.2978C488.033 36.2978 488.677 35.6146 488.677 34.7718V23.3276Z" fill="white"/>
<path d="M477.885 18.7498C477.885 17.9071 477.241 17.2239 476.446 17.2239C475.652 17.2239 475.007 17.9071 475.007 18.7498V38.5866C475.007 39.4293 475.652 40.1125 476.446 40.1125C477.241 40.1125 477.885 39.4293 477.885 38.5866V18.7498Z" fill="white"/>
<path d="M165.646 8.83145C165.646 7.98871 165.002 7.30554 164.207 7.30554C163.413 7.30554 162.769 7.98871 162.769 8.83145V48.505C162.769 49.3477 163.413 50.0309 164.207 50.0309C165.002 50.0309 165.646 49.3477 165.646 48.505V8.83145Z" fill="white"/>
<path d="M154.855 16.461C154.855 15.6182 154.21 14.9351 153.416 14.9351C152.621 14.9351 151.977 15.6182 151.977 16.461V40.8755C151.977 41.7182 152.621 42.4014 153.416 42.4014C154.21 42.4014 154.855 41.7182 154.855 40.8755V16.461Z" fill="white"/>
<path d="M144.063 23.3276C144.063 22.4848 143.419 21.8016 142.624 21.8016C141.829 21.8016 141.185 22.4848 141.185 23.3276V34.7718C141.185 35.6146 141.829 36.2978 142.624 36.2978C143.419 36.2978 144.063 35.6146 144.063 34.7718V23.3276Z" fill="white"/>
<path d="M133.271 18.7498C133.271 17.9071 132.627 17.2239 131.832 17.2239C131.038 17.2239 130.394 17.9071 130.394 18.7498V38.5866C130.394 39.4293 131.038 40.1125 131.832 40.1125C132.627 40.1125 133.271 39.4293 133.271 38.5866V18.7498Z" fill="white"/>
<path d="M434.719 18.7498C434.719 17.9071 434.074 17.2239 433.28 17.2239C432.485 17.2239 431.841 17.9071 431.841 18.7498V38.5866C431.841 39.4293 432.485 40.1125 433.28 40.1125C434.074 40.1125 434.719 39.4293 434.719 38.5866V18.7498Z" fill="white"/>
<path d="M184.352 8.83145C184.352 7.98871 184.996 7.30554 185.791 7.30554C186.585 7.30554 187.23 7.98871 187.23 8.83145V48.505C187.23 49.3477 186.585 50.0309 185.791 50.0309C184.996 50.0309 184.352 49.3477 184.352 48.505V8.83145Z" fill="white"/>
<path d="M173.56 13.4092C173.56 12.5664 174.204 11.8833 174.999 11.8833C175.794 11.8833 176.438 12.5664 176.438 13.4092V43.9273C176.438 44.77 175.794 45.4532 174.999 45.4532C174.204 45.4532 173.56 44.77 173.56 43.9273V13.4092Z" fill="white"/>
<path d="M195.144 18.7498C195.144 17.9071 195.788 17.2239 196.582 17.2239C197.377 17.2239 198.021 17.9071 198.021 18.7498V38.5866C198.021 39.4293 197.377 40.1125 196.582 40.1125C195.788 40.1125 195.144 39.4293 195.144 38.5866V18.7498Z" fill="white"/>
<path d="M467.094 23.3276C467.094 22.4848 466.449 21.8016 465.655 21.8016C464.86 21.8016 464.216 22.4848 464.216 23.3276V34.7718C464.216 35.6146 464.86 36.2978 465.655 36.2978C466.449 36.2978 467.094 35.6146 467.094 34.7718V23.3276Z" fill="white"/>
<path d="M316.01 23.3276C316.01 22.4848 315.366 21.8016 314.571 21.8016C313.777 21.8016 313.132 22.4848 313.132 23.3276V34.7718C313.132 35.6146 313.777 36.2978 314.571 36.2978C315.366 36.2978 316.01 35.6146 316.01 34.7718V23.3276Z" fill="white"/>
<path d="M272.844 23.3276C272.844 22.4848 272.199 21.8016 271.405 21.8016C270.61 21.8016 269.966 22.4848 269.966 23.3276V34.7718C269.966 35.6146 270.61 36.2978 271.405 36.2978C272.199 36.2978 272.844 35.6146 272.844 34.7718V23.3276Z" fill="white"/>
<path d="M305.219 24.8535C305.219 24.0107 304.574 23.3276 303.78 23.3276C302.985 23.3276 302.341 24.0107 302.341 24.8535V31.72C302.341 32.5628 302.985 33.2459 303.78 33.2459C304.574 33.2459 305.219 32.5628 305.219 31.72V24.8535Z" fill="white"/>
<path d="M294.427 24.8535C294.427 24.0107 293.783 23.3276 292.988 23.3276C292.193 23.3276 291.549 24.0107 291.549 24.8535V31.72C291.549 32.5628 292.193 33.2459 292.988 33.2459C293.783 33.2459 294.427 32.5628 294.427 31.72V24.8535Z" fill="white"/>
<path d="M283.635 27.1423C283.635 26.2996 282.991 25.6164 282.196 25.6164C281.402 25.6164 280.757 26.2996 280.757 27.1423V30.1941C280.757 31.0369 281.402 31.72 282.196 31.72C282.991 31.72 283.635 31.0369 283.635 30.1941V27.1423Z" fill="white"/>
<path d="M326.802 18.7498C326.802 17.9071 326.158 17.2239 325.363 17.2239C324.568 17.2239 323.924 17.9071 323.924 18.7498V38.5866C323.924 39.4293 324.568 40.1125 325.363 40.1125C326.158 40.1125 326.802 39.4293 326.802 38.5866V18.7498Z" fill="white"/>
<path d="M262.052 18.7498C262.052 17.9071 261.408 17.2239 260.613 17.2239C259.818 17.2239 259.174 17.9071 259.174 18.7498V38.5866C259.174 39.4293 259.818 40.1125 260.613 40.1125C261.408 40.1125 262.052 39.4293 262.052 38.5866V18.7498Z" fill="white"/>
<path d="M205.935 8.83145C205.935 7.98871 206.579 7.30554 207.374 7.30554C208.169 7.30554 208.813 7.98871 208.813 8.83145V48.505C208.813 49.3477 208.169 50.0309 207.374 50.0309C206.579 50.0309 205.935 49.3477 205.935 48.505V8.83145Z" fill="white"/>
<path d="M238.31 23.3276C238.31 22.4848 238.954 21.8016 239.749 21.8016C240.544 21.8016 241.188 22.4848 241.188 23.3276V34.7718C241.188 35.6146 240.544 36.2978 239.749 36.2978C238.954 36.2978 238.31 35.6146 238.31 34.7718V23.3276Z" fill="white"/>
<path d="M249.102 24.8535C249.102 24.0107 249.746 23.3276 250.541 23.3276C251.335 23.3276 251.98 24.0107 251.98 24.8535V31.72C251.98 32.5628 251.335 33.2459 250.541 33.2459C249.746 33.2459 249.102 32.5628 249.102 31.72V24.8535Z" fill="white"/>
<path d="M227.519 18.7498C227.519 17.9071 228.163 17.2239 228.957 17.2239C229.752 17.2239 230.396 17.9071 230.396 18.7498V38.5866C230.396 39.4293 229.752 40.1125 228.957 40.1125C228.163 40.1125 227.519 39.4293 227.519 38.5866V18.7498Z" fill="white"/>
<path d="M216.727 18.7498C216.727 17.9071 217.371 17.2239 218.166 17.2239C218.96 17.2239 219.605 17.9071 219.605 18.7498V38.5866C219.605 39.4293 218.96 40.1125 218.166 40.1125C217.371 40.1125 216.727 39.4293 216.727 38.5866V18.7498Z" fill="white"/>
<path d="M348.385 23.3276C348.385 22.4848 347.741 21.8016 346.946 21.8016C346.152 21.8016 345.507 22.4848 345.507 23.3276V34.7718C345.507 35.6146 346.152 36.2978 346.946 36.2978C347.741 36.2978 348.385 35.6146 348.385 34.7718V23.3276Z" fill="white"/>
<path d="M337.594 24.8535C337.594 24.0107 336.949 23.3276 336.155 23.3276C335.36 23.3276 334.716 24.0107 334.716 24.8535V31.72C334.716 32.5628 335.36 33.2459 336.155 33.2459C336.949 33.2459 337.594 32.5628 337.594 31.72V24.8535Z" fill="white"/>
<path d="M359.177 18.7498C359.177 17.9071 358.533 17.2239 357.738 17.2239C356.943 17.2239 356.299 17.9071 356.299 18.7498V38.5866C356.299 39.4293 356.943 40.1125 357.738 40.1125C358.533 40.1125 359.177 39.4293 359.177 38.5866V18.7498Z" fill="white"/>
<path d="M369.969 18.7498C369.969 17.9071 369.324 17.2239 368.53 17.2239C367.735 17.2239 367.091 17.9071 367.091 18.7498V38.5866C367.091 39.4293 367.735 40.1125 368.53 40.1125C369.324 40.1125 369.969 39.4293 369.969 38.5866V18.7498Z" fill="white"/>
<path d="M421.049 13.4092C421.049 12.5664 421.693 11.8833 422.488 11.8833C423.283 11.8833 423.927 12.5664 423.927 13.4092V43.9273C423.927 44.77 423.283 45.4532 422.488 45.4532C421.693 45.4532 421.049 44.77 421.049 43.9273V13.4092Z" fill="white"/>
<path d="M399.466 23.3276C399.466 22.4848 400.11 21.8016 400.905 21.8016C401.699 21.8016 402.344 22.4848 402.344 23.3276V34.7718C402.344 35.6146 401.699 36.2978 400.905 36.2978C400.11 36.2978 399.466 35.6146 399.466 34.7718V23.3276Z" fill="white"/>
<path d="M388.674 18.7498C388.674 17.9071 389.318 17.2239 390.113 17.2239C390.908 17.2239 391.552 17.9071 391.552 18.7498V38.5866C391.552 39.4293 390.908 40.1125 390.113 40.1125C389.318 40.1125 388.674 39.4293 388.674 38.5866V18.7498Z" fill="white"/>
<path d="M377.882 18.7498C377.882 17.9071 378.527 17.2239 379.321 17.2239C380.116 17.2239 380.76 17.9071 380.76 18.7498V38.5866C380.76 39.4293 380.116 40.1125 379.321 40.1125C378.527 40.1125 377.882 39.4293 377.882 38.5866V18.7498Z" fill="white"/>
<path d="M410.257 23.3276C410.257 22.4848 410.902 21.8016 411.696 21.8016C412.491 21.8016 413.135 22.4848 413.135 23.3276V34.7718C413.135 35.6146 412.491 36.2978 411.696 36.2978C410.902 36.2978 410.257 35.6146 410.257 34.7718V23.3276Z" fill="white"/>
<path d="M542.635 1.96487C542.635 1.12214 541.991 0.438965 541.196 0.438965C540.402 0.438965 539.758 1.12214 539.758 1.96487V55.3716C539.758 56.2143 540.402 56.8975 541.196 56.8975C541.991 56.8975 542.635 56.2143 542.635 55.3716V1.96487Z" fill="white"/>
<path d="M0.893555 8.83145C0.893555 7.98871 1.53777 7.30554 2.33244 7.30554C3.12712 7.30554 3.77133 7.98871 3.77133 8.83145V48.505C3.77133 49.3477 3.12712 50.0309 2.33244 50.0309C1.53777 50.0309 0.893555 49.3477 0.893555 48.505V8.83145Z" fill="white"/>
<path d="M22.4769 8.83145C22.4769 7.98871 23.1211 7.30554 23.9158 7.30554C24.7105 7.30554 25.3547 7.98871 25.3547 8.83145V48.505C25.3547 49.3477 24.7105 50.0309 23.9158 50.0309C23.1211 50.0309 22.4769 49.3477 22.4769 48.505V8.83145Z" fill="white"/>
<path d="M44.0602 8.83145C44.0602 7.98871 44.7044 7.30554 45.4991 7.30554C46.2938 7.30554 46.938 7.98871 46.938 8.83145V48.505C46.938 49.3477 46.2938 50.0309 45.4991 50.0309C44.7044 50.0309 44.0602 49.3477 44.0602 48.505V8.83145Z" fill="white"/>
<path d="M33.2686 20.2757C33.2686 19.433 33.9128 18.7498 34.7074 18.7498C35.5021 18.7498 36.1463 19.433 36.1463 20.2757V37.0607C36.1463 37.9034 35.5021 38.5866 34.7074 38.5866C33.9128 38.5866 33.2686 37.9034 33.2686 37.0607V20.2757Z" fill="white"/>
<path d="M54.8519 16.461C54.8519 15.6182 55.4961 14.9351 56.2908 14.9351C57.0855 14.9351 57.7297 15.6182 57.7297 16.461V40.8755C57.7297 41.7182 57.0855 42.4014 56.2908 42.4014C55.4961 42.4014 54.8519 41.7182 54.8519 40.8755V16.461Z" fill="white"/>
<path d="M65.6436 23.3276C65.6436 22.4848 66.2878 21.8016 67.0825 21.8016C67.8771 21.8016 68.5213 22.4848 68.5213 23.3276V34.7718C68.5213 35.6146 67.8771 36.2978 67.0825 36.2978C66.2878 36.2978 65.6436 35.6146 65.6436 34.7718V23.3276Z" fill="white"/>
<path d="M76.4352 18.7498C76.4352 17.9071 77.0794 17.2239 77.8741 17.2239C78.6688 17.2239 79.313 17.9071 79.313 18.7498V38.5866C79.313 39.4293 78.6688 40.1125 77.8741 40.1125C77.0794 40.1125 76.4352 39.4293 76.4352 38.5866V18.7498Z" fill="white"/>
<path d="M11.6852 1.96487C11.6852 1.12214 12.3294 0.438965 13.1241 0.438965C13.9188 0.438965 14.563 1.12214 14.563 1.96487V55.3716C14.563 56.2143 13.9188 56.8975 13.1241 56.8975C12.3294 56.8975 11.6852 56.2143 11.6852 55.3716V1.96487Z" fill="white"/>
<path d="M122.48 8.83145C122.48 7.98871 121.835 7.30554 121.041 7.30554C120.246 7.30554 119.602 7.98871 119.602 8.83145V48.505C119.602 49.3477 120.246 50.0309 121.041 50.0309C121.835 50.0309 122.48 49.3477 122.48 48.505V8.83145Z" fill="white"/>
<path d="M100.896 8.83145C100.896 7.98871 100.252 7.30554 99.4575 7.30554C98.6628 7.30554 98.0186 7.98871 98.0186 8.83145V48.505C98.0186 49.3477 98.6628 50.0309 99.4575 50.0309C100.252 50.0309 100.896 49.3477 100.896 48.505V8.83145Z" fill="white"/>
<path d="M90.1047 20.2757C90.1047 19.433 89.4605 18.7498 88.6658 18.7498C87.8711 18.7498 87.2269 19.433 87.2269 20.2757V37.0607C87.2269 37.9034 87.8711 38.5866 88.6658 38.5866C89.4605 38.5866 90.1047 37.9034 90.1047 37.0607V20.2757Z" fill="white"/>
<path d="M111.688 1.96487C111.688 1.12214 111.044 0.438965 110.249 0.438965C109.454 0.438965 108.81 1.12214 108.81 1.96487V55.3716C108.81 56.2143 109.454 56.8975 110.249 56.8975C111.044 56.8975 111.688 56.2143 111.688 55.3716V1.96487Z" fill="white"/>
</svg>
